<svg width="16" height="15" viewBox="0 0 16 15" fill="none" xmlns="http://www.w3.org/2000/svg">
<path d="M7.04919 0.92705C7.34854 0.00573921 8.65195 0.00573969 8.9513 0.92705L10.0209 4.21885C10.1547 4.63087 10.5387 4.90983 10.9719 4.90983H14.4331C15.4018 4.90983 15.8046 6.14945 15.0209 6.71885L12.2207 8.75329C11.8703 9.00793 11.7236 9.4593 11.8575 9.87132L12.927 13.1631C13.2264 14.0844 12.1719 14.8506 11.3882 14.2812L8.58803 12.2467C8.23754 11.9921 7.76295 11.9921 7.41246 12.2467L4.61229 14.2812C3.82858 14.8506 2.7741 14.0844 3.07345 13.1631L4.14302 9.87132C4.27689 9.4593 4.13023 9.00793 3.77975 8.75329L0.979577 6.71885C0.195863 6.14945 0.598639 4.90983 1.56736 4.90983H5.02856C5.46179 4.90983 5.84574 4.63087 5.97962 4.21885L7.04919 0.92705Z" fill="url(#paint0_linear_6_174)"/>
<defs>
<linearGradient id="paint0_linear_6_174" x1="17.5002" y1="7" x2="-0.999756" y2="7" gradientUnits="userSpaceOnUse">
<stop stop-color="#76BC21"/>
<stop offset="1" stop-color="#A0D166"/>
</linearGradient>
</defs>
</svg>
