<svg width="68" height="27" viewBox="0 0 68 27" fill="none" xmlns="http://www.w3.org/2000/svg">
<rect width="68" height="27" rx="2" fill="#76BC21"/>
<path d="M15.5533 13.1683V14.6499H10.9695V13.1683H15.5533ZM20.9847 19.1392C20.2688 19.1392 19.6325 19.0166 19.0756 18.7713C18.5221 18.526 18.0846 18.1847 17.7631 17.7472C17.4416 17.3097 17.271 16.8042 17.2511 16.2308H19.1204C19.137 16.5059 19.2281 16.7462 19.3938 16.9517C19.5595 17.1539 19.7799 17.3113 20.055 17.424C20.3301 17.5367 20.6384 17.593 20.9798 17.593C21.3443 17.593 21.6675 17.5301 21.9492 17.4041C22.2309 17.2749 22.4513 17.0959 22.6104 16.8672C22.7695 16.6385 22.8474 16.375 22.8441 16.0767C22.8474 15.7685 22.7679 15.4967 22.6055 15.2614C22.4431 15.026 22.2077 14.8421 21.8995 14.7095C21.5946 14.5769 21.2267 14.5107 20.7958 14.5107H19.896V13.0888H20.7958C21.1505 13.0888 21.4603 13.0275 21.7255 12.9048C21.994 12.7822 22.2044 12.6098 22.3569 12.3878C22.5094 12.1624 22.5839 11.9022 22.5806 11.6072C22.5839 11.3189 22.5193 11.0687 22.3867 10.8565C22.2575 10.6411 22.0735 10.4737 21.8349 10.3544C21.5996 10.2351 21.3228 10.1754 21.0046 10.1754C20.6931 10.1754 20.4047 10.2318 20.1396 10.3445C19.8744 10.4571 19.6606 10.6179 19.4982 10.8267C19.3358 11.0322 19.2496 11.2775 19.2397 11.5625H17.4648C17.4781 10.9924 17.6422 10.492 17.957 10.0611C18.2752 9.62689 18.6995 9.28883 19.2298 9.04688C19.7601 8.80161 20.355 8.67898 21.0146 8.67898C21.694 8.67898 22.284 8.80658 22.7844 9.06179C23.2882 9.31368 23.6777 9.65341 23.9528 10.081C24.2279 10.5085 24.3654 10.9808 24.3654 11.4979C24.3687 12.0713 24.1997 12.5518 23.8583 12.9396C23.5202 13.3274 23.0761 13.581 22.5259 13.7003V13.7798C23.2418 13.8793 23.7904 14.1444 24.1715 14.5753C24.556 15.0028 24.7466 15.5348 24.7433 16.1712C24.7433 16.7412 24.5808 17.2517 24.256 17.7024C23.9345 18.1499 23.4904 18.5012 22.9237 18.7564C22.3602 19.0116 21.7139 19.1392 20.9847 19.1392ZM33.6859 19.1939C32.8672 19.1939 32.1646 18.9867 31.5779 18.5724C30.9946 18.1548 30.5455 17.5533 30.2306 16.7678C29.9191 15.9789 29.7633 15.0294 29.7633 13.919C29.7666 12.8087 29.9241 11.8641 30.2356 11.0852C30.5505 10.303 30.9996 9.70644 31.5829 9.29545C32.1696 8.88447 32.8706 8.67898 33.6859 8.67898C34.5012 8.67898 35.2022 8.88447 35.7889 9.29545C36.3755 9.70644 36.8246 10.303 37.1362 11.0852C37.4511 11.8674 37.6085 12.812 37.6085 13.919C37.6085 15.0327 37.4511 15.9839 37.1362 16.7727C36.8246 17.5582 36.3755 18.1581 35.7889 18.5724C35.2056 18.9867 34.5046 19.1939 33.6859 19.1939ZM33.6859 17.6378C34.3223 17.6378 34.8244 17.3246 35.1923 16.6982C35.5635 16.0684 35.7491 15.142 35.7491 13.919C35.7491 13.1103 35.6646 12.4309 35.4956 11.8807C35.3265 11.3305 35.0879 10.9162 34.7797 10.6378C34.4714 10.3561 34.1068 10.2152 33.6859 10.2152C33.0529 10.2152 32.5524 10.5301 32.1845 11.1598C31.8166 11.7862 31.631 12.706 31.6277 13.919C31.6243 14.7311 31.7056 15.4138 31.8713 15.9673C32.0403 16.5208 32.2789 16.9384 32.5872 17.2202C32.8954 17.4986 33.2617 17.6378 33.6859 17.6378ZM43.0238 19.1939C42.2051 19.1939 41.5025 18.9867 40.9158 18.5724C40.3325 18.1548 39.8834 17.5533 39.5685 16.7678C39.257 15.9789 39.1012 15.0294 39.1012 13.919C39.1045 12.8087 39.262 11.8641 39.5735 11.0852C39.8884 10.303 40.3375 9.70644 40.9208 9.29545C41.5075 8.88447 42.2085 8.67898 43.0238 8.67898C43.8391 8.67898 44.5401 8.88447 45.1268 9.29545C45.7134 9.70644 46.1625 10.303 46.4741 11.0852C46.7889 11.8674 46.9464 12.812 46.9464 13.919C46.9464 15.0327 46.7889 15.9839 46.4741 16.7727C46.1625 17.5582 45.7134 18.1581 45.1268 18.5724C44.5434 18.9867 43.8424 19.1939 43.0238 19.1939ZM43.0238 17.6378C43.6602 17.6378 44.1623 17.3246 44.5302 16.6982C44.9014 16.0684 45.087 15.142 45.087 13.919C45.087 13.1103 45.0025 12.4309 44.8335 11.8807C44.6644 11.3305 44.4258 10.9162 44.1175 10.6378C43.8093 10.3561 43.4447 10.2152 43.0238 10.2152C42.3907 10.2152 41.8903 10.5301 41.5224 11.1598C41.1545 11.7862 40.9689 12.706 40.9656 13.919C40.9622 14.7311 41.0434 15.4138 41.2092 15.9673C41.3782 16.5208 41.6168 16.9384 41.9251 17.2202C42.2333 17.4986 42.5996 17.6378 43.0238 17.6378ZM52.3617 19.1939C51.543 19.1939 50.8404 18.9867 50.2537 18.5724C49.6704 18.1548 49.2213 17.5533 48.9064 16.7678C48.5949 15.9789 48.4391 15.0294 48.4391 13.919C48.4424 12.8087 48.5998 11.8641 48.9114 11.0852C49.2263 10.303 49.6754 9.70644 50.2587 9.29545C50.8453 8.88447 51.5463 8.67898 52.3617 8.67898C53.177 8.67898 53.878 8.88447 54.4647 9.29545C55.0513 9.70644 55.5004 10.303 55.812 11.0852C56.1268 11.8674 56.2843 12.812 56.2843 13.919C56.2843 15.0327 56.1268 15.9839 55.812 16.7727C55.5004 17.5582 55.0513 18.1581 54.4647 18.5724C53.8813 18.9867 53.1803 19.1939 52.3617 19.1939ZM52.3617 17.6378C52.998 17.6378 53.5002 17.3246 53.8681 16.6982C54.2393 16.0684 54.4249 15.142 54.4249 13.919C54.4249 13.1103 54.3404 12.4309 54.1713 11.8807C54.0023 11.3305 53.7637 10.9162 53.4554 10.6378C53.1472 10.3561 52.7826 10.2152 52.3617 10.2152C51.7286 10.2152 51.2282 10.5301 50.8603 11.1598C50.4924 11.7862 50.3068 12.706 50.3034 13.919C50.3001 14.7311 50.3813 15.4138 50.5471 15.9673C50.7161 16.5208 50.9547 16.9384 51.263 17.2202C51.5712 17.4986 51.9374 17.6378 52.3617 17.6378Z" fill="white"/>
</svg>
