<svg width="88" height="88" viewBox="0 0 88 88" fill="none" xmlns="http://www.w3.org/2000/svg">
<circle cx="44.0002" cy="44" r="44" fill="#76BC21"/>
<path d="M18.616 45V42.6207L24.9282 36.4329C25.5318 35.8233 26.0349 35.2817 26.4374 34.8082C26.8399 34.3348 27.1417 33.8761 27.3429 33.4322C27.5442 32.9883 27.6448 32.5148 27.6448 32.0117C27.6448 31.4376 27.5146 30.9464 27.2542 30.538C26.9937 30.1237 26.6357 29.8041 26.1799 29.5792C25.7242 29.3543 25.2063 29.2418 24.6263 29.2418C24.0285 29.2418 23.5047 29.3661 23.0549 29.6147C22.6051 29.8574 22.2559 30.2036 22.0073 30.6534C21.7647 31.1032 21.6434 31.6388 21.6434 32.2603H18.5095C18.5095 31.1062 18.7729 30.103 19.2996 29.2507C19.8264 28.3984 20.5514 27.7385 21.4747 27.271C22.4039 26.8034 23.4692 26.5696 24.6707 26.5696C25.8899 26.5696 26.9612 26.7975 27.8845 27.2532C28.8078 27.7089 29.5239 28.3333 30.0329 29.1264C30.5478 29.9195 30.8053 30.825 30.8053 31.843C30.8053 32.5237 30.6751 33.1925 30.4147 33.8494C30.1542 34.5064 29.6956 35.2344 29.0386 36.0334C28.3876 36.8324 27.4731 37.8001 26.2953 38.9364L23.1615 42.1236V42.2479H31.0805V45H18.616ZM40.6686 45.2486C39.3902 45.2486 38.2538 45.0296 37.2595 44.5916C36.2711 44.1536 35.4898 43.544 34.9157 42.7628C34.3416 41.9815 34.0368 41.079 34.0013 40.055H37.3394C37.369 40.5463 37.5317 40.9754 37.8277 41.3423C38.1236 41.7034 38.5172 41.9845 39.0084 42.1857C39.4997 42.387 40.0501 42.4876 40.6597 42.4876C41.3107 42.4876 41.8878 42.3751 42.3909 42.1502C42.8939 41.9194 43.2875 41.5998 43.5716 41.1914C43.8557 40.783 43.9948 40.3125 43.9889 39.7798C43.9948 39.2294 43.8528 38.7441 43.5627 38.3239C43.2727 37.9036 42.8525 37.5752 42.3021 37.3384C41.7576 37.1017 41.1006 36.9833 40.3312 36.9833H38.7243V34.4442H40.3312C40.9645 34.4442 41.5179 34.3348 41.9914 34.1158C42.4708 33.8968 42.8466 33.589 43.1189 33.1925C43.3911 32.79 43.5243 32.3254 43.5184 31.7987C43.5243 31.2837 43.4089 30.8369 43.1721 30.4581C42.9413 30.0734 42.6128 29.7745 42.1867 29.5614C41.7665 29.3484 41.2723 29.2418 40.7041 29.2418C40.1477 29.2418 39.6328 29.3424 39.1593 29.5437C38.6859 29.7449 38.3041 30.032 38.0141 30.4048C37.7241 30.7718 37.5702 31.2098 37.5524 31.7188H34.3831C34.4067 30.7008 34.6997 29.8071 35.262 29.0376C35.8301 28.2623 36.5877 27.6586 37.5347 27.2266C38.4817 26.7886 39.544 26.5696 40.7218 26.5696C41.9351 26.5696 42.9886 26.7975 43.8823 27.2532C44.782 27.703 45.4774 28.3097 45.9686 29.0732C46.4599 29.8366 46.7055 30.68 46.7055 31.6033C46.7114 32.6272 46.4096 33.4854 45.8 34.1779C45.1963 34.8704 44.4032 35.3232 43.4207 35.5362V35.6783C44.6991 35.8558 45.6786 36.3293 46.3593 37.0987C47.0458 37.8622 47.3861 38.8121 47.3802 39.9485C47.3802 40.9665 47.0902 41.878 46.5102 42.6829C45.9361 43.4819 45.143 44.1093 44.1309 44.565C43.1248 45.0207 41.9707 45.2486 40.6686 45.2486ZM60.1488 41.5909V40.6321C60.1488 39.9278 60.2967 39.2797 60.5927 38.6879C60.8945 38.096 61.3325 37.6196 61.9066 37.2585C62.4807 36.8975 63.1761 36.717 63.9929 36.717C64.8333 36.717 65.5376 36.8975 66.1058 37.2585C66.674 37.6136 67.1031 38.0871 67.3931 38.679C67.689 39.2708 67.837 39.9219 67.837 40.6321V41.5909C67.837 42.2952 67.689 42.9433 67.3931 43.5352C67.0972 44.127 66.6621 44.6035 66.088 44.9645C65.5199 45.3255 64.8215 45.506 63.9929 45.506C63.1643 45.506 62.4629 45.3255 61.8888 44.9645C61.3147 44.6035 60.8797 44.127 60.5838 43.5352C60.2938 42.9433 60.1488 42.2952 60.1488 41.5909ZM62.4659 40.6321V41.5909C62.4659 42.0585 62.5783 42.4876 62.8032 42.8782C63.0282 43.2688 63.4247 43.4641 63.9929 43.4641C64.567 43.4641 64.9606 43.2718 65.1736 42.8871C65.3926 42.4964 65.5021 42.0644 65.5021 41.5909V40.6321C65.5021 40.1586 65.3985 39.7266 65.1914 39.3359C64.9842 38.9394 64.5847 38.7411 63.9929 38.7411C63.4365 38.7411 63.0429 38.9394 62.8121 39.3359C62.5813 39.7266 62.4659 40.1586 62.4659 40.6321ZM50.9069 31.1861V30.2273C50.9069 29.517 51.0579 28.866 51.3597 28.2741C51.6616 27.6823 52.0995 27.2088 52.6736 26.8537C53.2477 26.4927 53.9432 26.3121 54.7599 26.3121C55.5944 26.3121 56.2958 26.4927 56.864 26.8537C57.4381 27.2088 57.8701 27.6823 58.1601 28.2741C58.4501 28.866 58.5951 29.517 58.5951 30.2273V31.1861C58.5951 31.8963 58.4472 32.5473 58.1513 33.1392C57.8612 33.7251 57.4292 34.1957 56.8551 34.5508C56.281 34.9059 55.5826 35.0835 54.7599 35.0835C53.9254 35.0835 53.2211 34.9059 52.647 34.5508C52.0788 34.1957 51.6468 33.7222 51.3508 33.1303C51.0549 32.5385 50.9069 31.8904 50.9069 31.1861ZM53.2418 30.2273V31.1861C53.2418 31.6596 53.3513 32.0916 53.5703 32.4822C53.7952 32.867 54.1917 33.0593 54.7599 33.0593C55.3281 33.0593 55.7187 32.867 55.9318 32.4822C56.1508 32.0916 56.2603 31.6596 56.2603 31.1861V30.2273C56.2603 29.7538 56.1567 29.3217 55.9496 28.9311C55.7424 28.5346 55.3459 28.3363 54.7599 28.3363C54.1977 28.3363 53.8041 28.5346 53.5792 28.9311C53.3543 29.3277 53.2418 29.7597 53.2418 30.2273ZM51.919 45L64.419 26.8182H66.6385L54.1385 45H51.919Z" fill="white"/>
<path d="M25.3312 57.2173H23.7375C23.692 56.956 23.6082 56.7244 23.486 56.5227C23.3639 56.3182 23.2119 56.1449 23.0301 56.0028C22.8483 55.8608 22.6409 55.7543 22.4079 55.6832C22.1778 55.6094 21.9292 55.5724 21.6622 55.5724C21.1877 55.5724 20.7673 55.6918 20.4008 55.9304C20.0343 56.1662 19.7474 56.5128 19.54 56.9702C19.3326 57.4247 19.2289 57.9801 19.2289 58.6364C19.2289 59.304 19.3326 59.8665 19.54 60.3239C19.7502 60.7784 20.0372 61.1222 20.4008 61.3551C20.7673 61.5852 21.1863 61.7003 21.6579 61.7003C21.9193 61.7003 22.1636 61.6662 22.3909 61.598C22.621 61.527 22.8269 61.4233 23.0088 61.2869C23.1934 61.1506 23.3483 60.983 23.4733 60.7841C23.6011 60.5852 23.6892 60.358 23.7375 60.1023L25.3312 60.1108C25.2716 60.5256 25.1423 60.9148 24.9434 61.2784C24.7474 61.642 24.4903 61.9631 24.1721 62.2415C23.8539 62.517 23.4818 62.733 23.0556 62.8892C22.6295 63.0426 22.1565 63.1193 21.6366 63.1193C20.8696 63.1193 20.1849 62.9418 19.5826 62.5866C18.9804 62.2315 18.5059 61.7188 18.1593 61.0483C17.8127 60.3778 17.6394 59.5739 17.6394 58.6364C17.6394 57.696 17.8142 56.892 18.1636 56.2244C18.513 55.554 18.9889 55.0412 19.5912 54.6861C20.1934 54.331 20.8752 54.1534 21.6366 54.1534C22.1224 54.1534 22.5741 54.2216 22.9917 54.358C23.4093 54.4943 23.7815 54.6946 24.1082 54.9588C24.4349 55.2202 24.7034 55.5412 24.9136 55.9219C25.1267 56.2997 25.2659 56.7315 25.3312 57.2173ZM32.0077 63L29.1355 59.1861H28.36V63H26.779V54.2727H28.36V57.8608H28.7563L31.8586 54.2727H33.806L30.3586 58.2528L33.9551 63H32.0077ZM35.029 54.2727H36.5972V60.2216H36.6782L40.7818 54.2727H42.2009V63H40.6199V57.0554H40.5475L36.431 63H35.029V54.2727ZM43.3568 65.1051V61.7088H43.9406C44.1366 61.5526 44.3198 61.3324 44.4903 61.0483C44.6608 60.7642 44.8056 60.375 44.925 59.8807C45.0443 59.3864 45.1267 58.7472 45.1721 57.9631L45.4022 54.2727H50.9804V61.7088H51.9519V65.0966H50.4349V63H44.8738V65.1051H43.3568ZM45.7815 61.7088H49.4633V55.598H46.8255L46.6892 57.9631C46.6522 58.5568 46.5926 59.0881 46.5102 59.5568C46.4278 60.0256 46.3241 60.4389 46.1991 60.7969C46.0741 61.152 45.9349 61.456 45.7815 61.7088ZM58.4686 63L55.5965 59.1861H54.8209V63H53.2399V54.2727H54.8209V57.8608H55.2172L58.3195 54.2727H60.2669L56.8195 58.2528L60.4161 63H58.4686ZM62.6107 63H60.9232L63.9956 54.2727H65.9473L69.024 63H67.3365L65.0056 56.0625H64.9374L62.6107 63ZM62.6661 59.5781H67.2684V60.848H62.6661V59.5781Z" fill="white"/>
</svg>
