<svg width="54" height="54" viewBox="0 0 54 54" fill="none" xmlns="http://www.w3.org/2000/svg">
<path d="M27 2.63449e-06C34.1608 2.32148e-06 41.0284 2.84464 46.0919 7.90812C51.1554 12.9716 54 19.8392 54 27C54 34.1608 51.1554 41.0284 46.0919 46.0919C41.0284 51.1554 34.1609 54 27 54L27 27L27 2.63449e-06Z" fill="white" fill-opacity="0.5"/>
<path d="M27 5C32.8348 5 38.4305 7.31785 42.5563 11.4436C46.6821 15.5694 49 21.1652 49 27C49 32.8348 46.6822 38.4305 42.5564 42.5563C38.4305 46.6821 32.8348 49 27 49L27 27L27 5Z" fill="white"/>
<path d="M37 23L33 27L37 31" stroke="#555555" stroke-width="2" stroke-linecap="round" stroke-linejoin="round"/>
</svg>
