<svg width="66" height="13" viewBox="0 0 66 13" fill="none" xmlns="http://www.w3.org/2000/svg">
<path d="M5.76729 0.363636V12H3.65934V2.41477H3.59115L0.869562 4.15341V2.22159L3.76161 0.363636H5.76729ZM9.14797 12L14.0968 2.20455V2.125H8.35252V0.363636H16.2787V2.16477L11.3355 12H9.14797ZM26.121 0.204545C26.6778 0.208333 27.2195 0.306818 27.746 0.5C28.2763 0.689394 28.7536 1 29.1778 1.43182C29.602 1.85985 29.9392 2.43371 30.1892 3.15341C30.4392 3.87311 30.5642 4.76326 30.5642 5.82386C30.568 6.82386 30.4619 7.7178 30.246 8.50568C30.0339 9.28977 29.7289 9.95265 29.3312 10.4943C28.9335 11.036 28.4543 11.4489 27.8937 11.733C27.3331 12.017 26.7024 12.1591 26.0017 12.1591C25.2668 12.1591 24.6153 12.0152 24.0471 11.7273C23.4827 11.4394 23.0263 11.0455 22.6778 10.5455C22.3293 10.0455 22.1153 9.47348 22.0358 8.82955H24.1096C24.2157 9.29167 24.4316 9.65909 24.7573 9.93182C25.0869 10.2008 25.5017 10.3352 26.0017 10.3352C26.8085 10.3352 27.4297 9.98485 27.8653 9.28409C28.3009 8.58333 28.5187 7.60985 28.5187 6.36364H28.4392C28.2536 6.69697 28.013 6.98485 27.7176 7.22727C27.4221 7.46591 27.0869 7.64962 26.7119 7.77841C26.3407 7.9072 25.9467 7.97159 25.5301 7.97159C24.8483 7.97159 24.2346 7.80871 23.6892 7.48295C23.1475 7.1572 22.7176 6.71023 22.3994 6.14205C22.085 5.57386 21.9259 4.92424 21.9221 4.19318C21.9221 3.43561 22.0964 2.75568 22.4448 2.15341C22.7971 1.54735 23.2876 1.07008 23.9164 0.721591C24.5452 0.369318 25.2801 0.196969 26.121 0.204545ZM26.1267 1.90909C25.7176 1.90909 25.3483 2.00947 25.0187 2.21023C24.693 2.4072 24.4354 2.67614 24.246 3.01705C24.0604 3.35417 23.9676 3.73106 23.9676 4.14773C23.9714 4.56061 24.0642 4.93561 24.246 5.27273C24.4316 5.60985 24.6835 5.87689 25.0017 6.07386C25.3236 6.27083 25.6911 6.36932 26.1039 6.36932C26.4108 6.36932 26.6967 6.31061 26.9619 6.19318C27.227 6.07576 27.4581 5.91288 27.6551 5.70455C27.8558 5.49242 28.0111 5.25189 28.121 4.98295C28.2346 4.71401 28.2895 4.42992 28.2858 4.13068C28.2858 3.73295 28.1911 3.36553 28.0017 3.02841C27.8161 2.69129 27.5604 2.42045 27.2346 2.21591C26.9126 2.01136 26.5433 1.90909 26.1267 1.90909ZM36.496 0.204545C37.0528 0.208333 37.5945 0.306818 38.121 0.5C38.6513 0.689394 39.1286 1 39.5528 1.43182C39.977 1.85985 40.3142 2.43371 40.5642 3.15341C40.8142 3.87311 40.9392 4.76326 40.9392 5.82386C40.943 6.82386 40.8369 7.7178 40.621 8.50568C40.4089 9.28977 40.1039 9.95265 39.7062 10.4943C39.3085 11.036 38.8293 11.4489 38.2687 11.733C37.7081 12.017 37.0774 12.1591 36.3767 12.1591C35.6418 12.1591 34.9903 12.0152 34.4221 11.7273C33.8577 11.4394 33.4013 11.0455 33.0528 10.5455C32.7043 10.0455 32.4903 9.47348 32.4108 8.82955H34.4846C34.5907 9.29167 34.8066 9.65909 35.1323 9.93182C35.4619 10.2008 35.8767 10.3352 36.3767 10.3352C37.1835 10.3352 37.8047 9.98485 38.2403 9.28409C38.6759 8.58333 38.8937 7.60985 38.8937 6.36364H38.8142C38.6286 6.69697 38.388 6.98485 38.0926 7.22727C37.7971 7.46591 37.4619 7.64962 37.0869 7.77841C36.7157 7.9072 36.3217 7.97159 35.9051 7.97159C35.2233 7.97159 34.6096 7.80871 34.0642 7.48295C33.5225 7.1572 33.0926 6.71023 32.7744 6.14205C32.46 5.57386 32.3009 4.92424 32.2971 4.19318C32.2971 3.43561 32.4714 2.75568 32.8198 2.15341C33.1721 1.54735 33.6626 1.07008 34.2914 0.721591C34.9202 0.369318 35.6551 0.196969 36.496 0.204545ZM36.5017 1.90909C36.0926 1.90909 35.7233 2.00947 35.3937 2.21023C35.068 2.4072 34.8104 2.67614 34.621 3.01705C34.4354 3.35417 34.3426 3.73106 34.3426 4.14773C34.3464 4.56061 34.4392 4.93561 34.621 5.27273C34.8066 5.60985 35.0585 5.87689 35.3767 6.07386C35.6986 6.27083 36.0661 6.36932 36.4789 6.36932C36.7858 6.36932 37.0717 6.31061 37.3369 6.19318C37.602 6.07576 37.8331 5.91288 38.0301 5.70455C38.2308 5.49242 38.3861 5.25189 38.496 4.98295C38.6096 4.71401 38.6645 4.42992 38.6608 4.13068C38.6608 3.73295 38.5661 3.36553 38.3767 3.02841C38.1911 2.69129 37.9354 2.42045 37.6096 2.21591C37.2876 2.01136 36.9183 1.90909 36.5017 1.90909ZM46.871 0.204545C47.4278 0.208333 47.9695 0.306818 48.496 0.5C49.0263 0.689394 49.5036 1 49.9278 1.43182C50.352 1.85985 50.6892 2.43371 50.9392 3.15341C51.1892 3.87311 51.3142 4.76326 51.3142 5.82386C51.318 6.82386 51.2119 7.7178 50.996 8.50568C50.7839 9.28977 50.4789 9.95265 50.0812 10.4943C49.6835 11.036 49.2043 11.4489 48.6437 11.733C48.0831 12.017 47.4524 12.1591 46.7517 12.1591C46.0168 12.1591 45.3653 12.0152 44.7971 11.7273C44.2327 11.4394 43.7763 11.0455 43.4278 10.5455C43.0793 10.0455 42.8653 9.47348 42.7858 8.82955H44.8596C44.9657 9.29167 45.1816 9.65909 45.5073 9.93182C45.8369 10.2008 46.2517 10.3352 46.7517 10.3352C47.5585 10.3352 48.1797 9.98485 48.6153 9.28409C49.0509 8.58333 49.2687 7.60985 49.2687 6.36364H49.1892C49.0036 6.69697 48.763 6.98485 48.4676 7.22727C48.1721 7.46591 47.8369 7.64962 47.4619 7.77841C47.0907 7.9072 46.6967 7.97159 46.2801 7.97159C45.5983 7.97159 44.9846 7.80871 44.4392 7.48295C43.8975 7.1572 43.4676 6.71023 43.1494 6.14205C42.835 5.57386 42.6759 4.92424 42.6721 4.19318C42.6721 3.43561 42.8464 2.75568 43.1948 2.15341C43.5471 1.54735 44.0376 1.07008 44.6664 0.721591C45.2952 0.369318 46.0301 0.196969 46.871 0.204545ZM46.8767 1.90909C46.4676 1.90909 46.0983 2.00947 45.7687 2.21023C45.443 2.4072 45.1854 2.67614 44.996 3.01705C44.8104 3.35417 44.7176 3.73106 44.7176 4.14773C44.7214 4.56061 44.8142 4.93561 44.996 5.27273C45.1816 5.60985 45.4335 5.87689 45.7517 6.07386C46.0736 6.27083 46.4411 6.36932 46.8539 6.36932C47.1608 6.36932 47.4467 6.31061 47.7119 6.19318C47.977 6.07576 48.2081 5.91288 48.4051 5.70455C48.6058 5.49242 48.7611 5.25189 48.871 4.98295C48.9846 4.71401 49.0395 4.42992 49.0358 4.13068C49.0358 3.73295 48.9411 3.36553 48.7517 3.02841C48.5661 2.69129 48.3104 2.42045 47.9846 2.21591C47.6626 2.01136 47.2933 1.90909 46.8767 1.90909ZM57.2886 12V0.363636H61.6522C62.5462 0.363636 63.2962 0.530303 63.9022 0.863636C64.5121 1.19697 64.9723 1.6553 65.2829 2.23864C65.5973 2.81818 65.7545 3.47727 65.7545 4.21591C65.7545 4.96212 65.5973 5.625 65.2829 6.20455C64.9685 6.78409 64.5045 7.24053 63.8909 7.57386C63.2772 7.90341 62.5216 8.06818 61.6238 8.06818H58.7318V6.33523H61.3397C61.8625 6.33523 62.2905 6.24432 62.6238 6.0625C62.9572 5.88068 63.2034 5.63068 63.3625 5.3125C63.5253 4.99432 63.6068 4.62879 63.6068 4.21591C63.6068 3.80303 63.5253 3.43939 63.3625 3.125C63.2034 2.81061 62.9553 2.56629 62.6181 2.39205C62.2848 2.21402 61.8549 2.125 61.3284 2.125H59.3966V12H57.2886Z" fill="#555555" fill-opacity="0.5"/>
<path d="M0.000244141 6.76136H66.4363V7.85227H0.000244141V6.76136Z" fill="#555555" fill-opacity="0.5"/>
</svg>
