<svg width="54" height="54" viewBox="0 0 54 54" fill="none" xmlns="http://www.w3.org/2000/svg">
<path d="M27 54C19.8392 54 12.9716 51.1554 7.90811 46.0919C2.84463 41.0284 -5.30792e-06 34.1608 -4.9949e-06 27C-4.68189e-06 19.8392 2.84463 12.9716 7.90811 7.90812C12.9716 2.84463 19.8391 -4.1196e-07 27 -1.18021e-06L27 27L27 54Z" fill="white" fill-opacity="0.5"/>
<path d="M27 49C21.1652 49 15.5694 46.6821 11.4437 42.5563C7.31785 38.4305 5 32.8348 5 27C5 21.1652 7.31785 15.5695 11.4436 11.4437C15.5695 7.31785 21.1652 5 27 5L27 27L27 49Z" fill="white"/>
<path d="M17 31L21 27L17 23" stroke="#555555" stroke-width="2" stroke-linecap="round" stroke-linejoin="round"/>
</svg>
